<svg width="24" height="24" viewBox="0 0 24 24" fill="none" xmlns="http://www.w3.org/2000/svg">
<path d="M3 7.15385C3 14.8009 9.19913 21 16.8462 21H18.9231C20.0701 21 21 20.0701 21 18.9231V17.657C21 17.1804 20.6757 16.7651 20.2134 16.6495L16.1305 15.6288C15.7251 15.5274 15.2985 15.6789 15.0478 16.0132L14.1522 17.2073C13.8923 17.5538 13.4428 17.7071 13.036 17.5581C9.98344 16.4399 7.56014 14.0166 6.44194 10.964C6.29293 10.5572 6.44618 10.1077 6.79274 9.84775L7.98685 8.95217C8.32111 8.70148 8.47257 8.27488 8.37123 7.86954L7.3505 3.7866C7.23492 3.32431 6.81956 3 6.34304 3H5.07692C3.92987 3 3 3.92987 3 5.07692V7.15385Z" stroke="black" stroke-width="1.5" stroke-linecap="round" stroke-linejoin="round"/>
</svg>
