<?xml version="1.0" encoding="UTF-8"?>
<svg xmlns="http://www.w3.org/2000/svg" xmlns:xlink="http://www.w3.org/1999/xlink" version="1.1" id="Capa_1" x="0px" y="0px" viewBox="0 0 509.997 509.997" style="enable-background:new 0 0 509.997 509.997;" xml:space="preserve" width="512" height="512">
<g>
	<polygon id="XMLID_433_" style="fill:none;stroke:#000000;stroke-width:30;stroke-miterlimit:10;" points="493.533,254.998 &#10;&#9;&#9;467.735,312.008 461.606,374.288 410.693,410.694 374.288,461.607 312.009,467.735 254.998,493.533 197.989,467.735 &#10;&#9;&#9;135.708,461.606 99.303,410.693 48.391,374.288 42.262,312.009 16.464,254.998 42.262,197.988 48.391,135.708 99.304,99.303 &#10;&#9;&#9;135.709,48.39 197.988,42.262 254.998,16.464 312.008,42.262 374.288,48.391 410.694,99.304 461.606,135.709 467.735,197.988 &#9;"/>
	<path id="XMLID_432_" style="fill:none;stroke:#000000;stroke-width:30;stroke-miterlimit:10;" d="M389.998,271.999h-30v-60h30&#10;&#9;&#9;c16.568,0,30,13.432,30,30l0,0C419.998,258.567,406.567,271.999,389.998,271.999z"/>
	
		<line id="XMLID_431_" style="fill:none;stroke:#000000;stroke-width:30;stroke-miterlimit:10;" x1="359.998" y1="346.999" x2="359.998" y2="271.999"/>
	<polyline id="XMLID_430_" style="fill:none;stroke:#000000;stroke-width:30;stroke-miterlimit:10;" points="239.998,346.999 &#10;&#9;&#9;239.998,211.998 247.498,211.998 269.998,241.998 291.998,211.998 299.998,211.998 299.998,346.999 &#9;"/>
	<path id="XMLID_429_" style="fill:none;stroke:#000000;stroke-width:30;stroke-miterlimit:10;" d="M194.998,211.998h-60&#10;&#9;&#9;c-16.568,0-30,13.432-30,30v60c0,16.568,13.432,30,30,30h45v-60h-30"/>
</g>















</svg>
