<svg width="24" height="24" viewBox="0 0 24 24" fill="none" xmlns="http://www.w3.org/2000/svg">
<path d="M3 22H21" stroke="#292D32" stroke-width="1.5" stroke-linecap="round" stroke-linejoin="round"/>
<path d="M5.88888 14H4.11112C3.5 14 3 14.2119 3 14.4708V18.5292C3 18.7881 3.5 19 4.11112 19H5.88888C6.5 19 7 18.7881 7 18.5292V14.4708C7 14.2119 6.5 14 5.88888 14Z" stroke="#292D32" stroke-width="1.5" stroke-linecap="round" stroke-linejoin="round"/>
<path d="M12.8889 8H11.1111C10.5 8 10 8.35844 10 8.79652V18.2035C10 18.6416 10.5 19 11.1111 19H12.8889C13.5 19 14 18.6416 14 18.2035V8.79652C14 8.35844 13.5 8 12.8889 8Z" stroke="#292D32" stroke-width="1.5" stroke-linecap="round" stroke-linejoin="round"/>
<path d="M20 2H18.4C17.85 2 17.4 2.45 17.4 3V18C17.4 18.55 17.85 19 18.4 19H20C20.55 19 21 18.55 21 18V3C21 2.45 20.55 2 20 2Z" stroke="#292D32" stroke-width="1.5" stroke-linecap="round" stroke-linejoin="round"/>
</svg>
