<svg width="24" height="24" viewBox="0 0 24 24" fill="none" xmlns="http://www.w3.org/2000/svg">
<path d="M3 22H21" stroke="#292D32" stroke-width="1.5" stroke-linecap="round" stroke-linejoin="round"/>
<path d="M5.88888 2H4.11112C3.5 2 3 2.72034 3 3.60075V17.3992C3 18.2797 3.5 19 4.11112 19H5.88888C6.5 19 7 18.2797 7 17.3992V3.60075C7 2.72034 6.5 2 5.88888 2Z" stroke="#292D32" stroke-width="1.5" stroke-linecap="round" stroke-linejoin="round"/>
<path d="M12.8889 8H11.1111C10.5 8 10 8.35844 10 8.79652V18.2035C10 18.6416 10.5 19 11.1111 19H12.8889C13.5 19 14 18.6416 14 18.2035V8.79652C14 8.35844 13.5 8 12.8889 8Z" stroke="#292D32" stroke-width="1.5" stroke-linecap="round" stroke-linejoin="round"/>
<path d="M19.8889 14H18.1111C17.5 14 17 14.1324 17 14.2941V18.7059C17 18.8676 17.5 19 18.1111 19H19.8889C20.5 19 21 18.8676 21 18.7059V14.2941C21 14.1324 20.5 14 19.8889 14Z" stroke="#292D32" stroke-width="1.5" stroke-linecap="round" stroke-linejoin="round"/>
</svg>
