<svg width="25" height="26" viewBox="0 0 25 26" fill="none" xmlns="http://www.w3.org/2000/svg">
<path d="M15.6641 21.4022C15.6632 20.7618 15.8379 20.1329 16.1695 19.5814L7.83337 14.8146C7.51091 15.3583 7.04906 15.8093 6.49342 16.1228C5.93779 16.4364 5.30811 16.6014 4.66726 16.6013C3.69478 16.6009 2.76174 16.2215 2.07409 15.5464C1.38644 14.8712 1.00039 13.9555 1 13.0007C1.00039 12.046 1.38711 11.1307 2.0748 10.4557C2.76249 9.78083 3.69491 9.40154 4.66726 9.40154C5.30833 9.40125 5.93825 9.56609 6.49414 9.87961C7.05002 10.1931 7.51209 10.6444 7.83479 11.1882L16.1638 6.41445C15.836 5.86421 15.6632 5.23801 15.6641 4.60056C15.6643 4.12755 15.7596 3.6591 15.9441 3.22217C16.1287 2.78524 16.3988 2.38819 16.7396 2.05386C17.0804 1.71952 17.4851 1.45442 17.9302 1.27358C18.3754 1.09274 18.8524 0.999813 19.3342 1C19.8157 1 20.2925 1.09297 20.7374 1.27393C21.1822 1.45489 21.5862 1.7202 21.9266 2.05455C22.267 2.38891 22.5372 2.78604 22.7213 3.22287C22.9055 3.65969 23.0002 4.1278 23 4.60056C23.0002 5.07325 22.9055 5.54116 22.7213 5.9779C22.5372 6.41464 22.2671 6.81162 21.9266 7.14586C21.5862 7.48011 21.1822 7.74498 20.7374 7.92579C20.2925 8.10659 19.8156 8.19956 19.3342 8.19937C18.6929 8.19973 18.0629 8.03522 17.5066 7.722C16.9503 7.40877 16.4874 6.95807 16.1638 6.41445L7.83479 11.1882C8.16158 11.7383 8.33384 12.3639 8.3331 13.0007C8.33417 13.6377 8.16139 14.2636 7.83337 14.8132L16.1695 19.58C16.4924 19.0374 16.9548 18.5874 17.5101 18.2749C18.0655 17.9624 18.6941 17.7982 19.3342 17.7989C19.8158 17.7989 20.2931 17.8921 20.7381 18.0732C21.183 18.2542 21.5869 18.5196 21.9273 18.8541C22.2678 19.1886 22.538 19.5858 22.7221 20.0228C22.9061 20.4598 23.0004 20.928 23 21.4008C23 22.3554 22.6141 23.2708 21.9266 23.9458C21.2392 24.6208 20.3064 25 19.3342 25C18.3617 25.0004 17.4292 24.6214 16.741 23.9468C16.0528 23.2722 15.6652 22.357 15.6641 21.4022V21.4022Z" stroke="#292D32" stroke-width="1.2" stroke-linecap="round"/>
</svg>
