<svg id="Capa_1" enable-background="new 0 0 512 512" height="512" viewBox="0 0 512 512" width="512" xmlns="http://www.w3.org/2000/svg"><g><path d="m467 0h-422c-24.813 0-45 20.187-45 45v140c0 24.813 20.187 45 45 45h166v80.787l-34.44 34.44c-16.482 16.482-25.56 38.397-25.56 61.708 0 23.072 9.386 45.634 25.75 61.897l36.88 36.654c2.704 3.935 7.236 6.514 12.37 6.514h200c3.246 0 6.404-1.053 9-3 28.804-21.604 46-55.996 46-92v-70c0-24.813-20.187-45-45-45-7.132 0-13.88 1.667-19.878 4.633-7.445-14.607-22.634-24.633-40.122-24.633-11.508 0-22.016 4.347-29.981 11.479-7.964-7.135-18.48-11.479-30.015-11.479-5.263 0-10.31.912-15.004 2.572v-54.572h166c24.813 0 45-20.187 45-45v-140c0-24.813-20.187-45-45-45zm-150.996 312c8.243 0 14.928 6.649 14.999 14.875 0 .042-.003.083-.003.125v40c-.002 8.284 6.713 15 14.996 15h.004c8.282 0 14.998-6.714 15-14.996l.01-39.987c0-.049-.004-.097-.004-.145.07-8.212 6.766-14.872 14.994-14.872 8.271 0 15 6.729 15 15v40c0 8.284 6.716 15 15 15s15-6.716 15-15v-20c0-8.271 6.729-15 15-15s15 6.729 15 15v70c0 25.002-11.218 48.952-30.231 65h-188.213l-34.657-34.445c-10.74-10.674-16.899-25.48-16.899-40.62 0-15.297 5.957-29.679 16.773-40.495l13.227-13.227v53.787c0 8.284 6.716 15 15 15s15-6.716 15-15v-180c0-8.271 6.729-15 15-15s15 6.729 15 15v140.001c0 8.525 7.112 15.388 15.726 14.982 8.068-.38 14.275-7.33 14.274-15.406v-39.605c.019-8.272 6.728-14.972 15.004-14.972zm165.996-127c0 8.271-6.729 15-15 15h-175.024c-8.218-10.923-21.285-18-35.975-18s-27.757 7.077-35.976 18h-175.025c-8.271 0-15-6.729-15-15v-140c0-8.271 6.729-15 15-15h422c8.271 0 15 6.729 15 15z"/><path d="m375.598 108.317c2.447-4.424 3.844-9.506 3.844-14.909 0-17.043-13.865-30.908-30.908-30.908h-23.238c-6.903 0-12.5 5.597-12.5 12.5v80c0 3.325 1.325 6.513 3.681 8.858 2.343 2.333 5.514 3.642 8.819 3.642h.055c.003 0 21.355-.095 27.241-.095 18.766 0 34.034-15.268 34.034-34.034 0-9.903-4.254-18.829-11.028-25.054zm-37.802-20.817h10.738c3.257 0 5.908 2.65 5.908 5.908s-2.65 5.908-5.908 5.908c-1.693 0-4.87.009-8.34.021h-2.398zm14.796 54.905c-2.779 0-8.993.021-14.796.043v-18.102c.794-.003 1.585-.006 2.363-.009h12.433c4.981 0 9.034 4.053 9.034 9.033 0 4.983-4.053 9.035-9.034 9.035z"/><path d="m285.296 62.5c-6.904 0-12.5 5.597-12.5 12.5v54.991c0 3.309-.974 7.182-8.2 10.82-2.264 1.14-4.774 1.68-7.577 1.688-3.041-.004-5.667-.74-8.032-2.252-5.67-3.622-6.78-6.482-6.78-10.199v-55.048c0-6.903-5.597-12.5-12.5-12.5-6.904 0-12.5 5.597-12.5 12.5v55.049c0 12.981 6.164 23.501 18.318 31.266 6.405 4.095 13.626 6.176 21.461 6.186h.061c6.725 0 13.049-1.467 18.792-4.36 14.158-7.129 21.956-18.901 21.956-33.148v-54.993c.001-6.903-5.596-12.5-12.499-12.5z"/><path d="m176.946 103.992c-9.359-3.452-18.103-7.202-21.236-8.569-.865-.839-.94-1.892-.827-2.681.282-1.966 1.951-3.547 4.579-4.339 9.363-2.821 16.462 1.808 17.886 2.846 3.693 4.577 10.231 6.036 15.611 3.163 6.089-3.253 8.388-10.826 5.135-16.915-4.31-8.068-23.853-19.655-45.843-13.031-11.969 3.605-20.443 13.079-22.115 24.724-1.577 10.986 3.188 21.557 12.436 27.586.552.359 1.132.675 1.733.943.465.208 11.532 5.134 23.988 9.729 4.668 1.723 9.447 4.743 8.855 8.057-.504 2.821-4.494 6.996-11.46 6.996-7.233 0-14.169-2.888-18.553-7.726-4.636-5.116-12.542-5.504-17.656-.869-5.116 4.636-5.505 12.541-.869 17.656 9.179 10.129 22.693 15.938 37.078 15.938 18.045 0 33.215-11.608 36.071-27.602 2.168-12.133-3.213-27.938-24.813-35.906z"/></g></svg>