<svg width="38" height="38" viewBox="0 0 38 38" fill="none" xmlns="http://www.w3.org/2000/svg">
<rect width="38" height="38" rx="4" fill="none"/>
<path d="M21.7812 18.6264C22.624 18.6484 23.4627 18.5014 24.2477 18.194C25.0327 17.8867 25.7483 17.4253 26.3521 16.837C26.956 16.2487 27.4359 15.5454 27.7636 14.7686C28.0913 13.9919 28.2601 13.1573 28.2601 12.3143C28.2601 11.4712 28.0913 10.6367 27.7636 9.85993C27.4359 9.08317 26.956 8.37989 26.3521 7.79158C25.7483 7.20327 25.0327 6.74184 24.2477 6.43451C23.4627 6.12718 22.624 5.98017 21.7812 6.00215" fill="#D0D4FD"/>
<path d="M21.7812 33.9811C22.8393 34.056 23.9014 33.9123 24.9014 33.559C25.9015 33.2056 26.8181 32.6501 27.5941 31.9271C28.3702 31.2041 28.9891 30.329 29.4122 29.3564C29.8354 28.3838 30.0538 27.3345 30.0538 26.2739C30.0538 25.2132 29.8354 24.1639 29.4122 23.1913C28.9891 22.2187 28.3702 21.3437 27.5941 20.6207C26.8181 19.8976 25.9015 19.3422 24.9014 18.9888C23.9014 18.6354 22.8393 18.4917 21.7812 18.5667" fill="#A5ACFC"/>
<path d="M21.7831 6.00195H9V33.9805H21.7831V6.00195Z" fill="#8A92F0"/>
</svg>
