<svg width="38" height="38" viewBox="0 0 38 38" fill="none" xmlns="http://www.w3.org/2000/svg">
<rect width="38" height="38" rx="4" fill="none"/>
<g clip-path="url(#clip0_6015_33976)">
<path d="M29.8247 5.00005H21.9844V12.8403C26.3146 12.8403 29.8247 9.33026 29.8247 5.00005Z" fill="#BF97F1"/>
<path d="M22.2075 5H14.3672V12.8403H22.2075V5Z" fill="#BF97F1"/>
<path d="M22.2075 25.1597H14.3672V32.9999H22.2075V25.1597Z" fill="#BF97F1"/>
<path d="M21.9844 32.9999V25.1597H29.8247C29.8247 29.4899 26.3146 32.9999 21.9844 32.9999V32.9999Z" fill="#BF97F1"/>
<path d="M18.4017 5H9V33H18.4017V5Z" fill="#916CC0"/>
<path d="M22.0063 22.475C24.029 22.475 25.6688 20.8352 25.6688 18.8124C25.6688 16.7897 24.029 15.1499 22.0063 15.1499C19.9835 15.1499 18.3438 16.7897 18.3438 18.8124C18.3438 20.8352 19.9835 22.475 22.0063 22.475Z" fill="#9E72D6"/>
</g>
<defs>
<clipPath id="clip0_6015_33976">
<rect width="20.8274" height="28" fill="white" transform="translate(9 5)"/>
</clipPath>
</defs>
</svg>
