<svg width="38" height="38" viewBox="0 0 38 38" fill="none" xmlns="http://www.w3.org/2000/svg">
<rect width="38" height="38" rx="4" fill="none"/>
<g clip-path="url(#clip0_6015_33978)">
<path d="M25.6649 19.0714C25.6261 22.7117 22.673 25.656 19.0221 25.6684C15.3395 25.6807 12.3459 22.7047 12.3335 19.0221C12.3212 15.3395 15.2972 12.3459 18.9798 12.3335C20.0264 12.33 21.0184 12.5696 21.9012 12.996H31.6504C29.3933 8.25449 24.553 4.98245 18.9551 5.00007C11.2217 5.02474 4.9754 11.3133 5.00007 19.0468C5.02474 26.7784 11.3133 33.0265 19.0468 33.0018C26.7397 32.9772 32.9613 26.7502 32.9983 19.0732H25.6666L25.6649 19.0714Z" fill="#9FDDD2"/>
<path d="M19.0781 19.0801H32.9997C32.9997 26.7624 26.7622 33.0017 19.0781 33.0017V19.0801V19.0801Z" fill="#80BCB1"/>
</g>
<defs>
<clipPath id="clip0_6015_33978">
<rect width="28" height="28" fill="white" transform="translate(5 5)"/>
</clipPath>
</defs>
</svg>
