<svg width="38" height="38" viewBox="0 0 38 38" fill="none" xmlns="http://www.w3.org/2000/svg">
<rect width="38" height="38" rx="4" fill="none"/>
<path d="M33.6433 5V14.8308H23.8125C23.8125 9.40047 28.213 5 33.6433 5Z" fill="#EBB8F3"/>
<path d="M23.8125 23.1689H33.6433C33.6433 28.5975 29.2429 32.9998 23.8125 32.9998V23.1689V23.1689Z" fill="#EBB8F3"/>
<path d="M33.6433 14.8198H23.8125V23.1673H33.6433V14.8198Z" fill="#EBB8F3"/>
<path d="M5 32.9998V23.1689H14.8308C14.8308 28.5975 10.4304 32.9998 5 32.9998Z" fill="#EBB8F3"/>
<path d="M14.8308 14.8308H5C5 9.40047 9.40047 5 14.8308 5V14.8308Z" fill="#EBB8F3"/>
<path d="M14.8308 14.8325H5V23.18H14.8308V14.8325Z" fill="#EBB8F3"/>
<path d="M19.2724 23.3269C21.6621 23.3269 23.5994 21.3896 23.5994 18.9999C23.5994 16.6101 21.6621 14.6729 19.2724 14.6729C16.8826 14.6729 14.9453 16.6101 14.9453 18.9999C14.9453 21.3896 16.8826 23.3269 19.2724 23.3269Z" fill="#D89DE2"/>
</svg>
