<svg width="38" height="38" viewBox="0 0 38 38" fill="none" xmlns="http://www.w3.org/2000/svg">
<rect width="38" height="38" rx="4" fill="none"/>
<path d="M24.0078 5.01416C24.0078 7.21311 25.7914 8.99671 27.9904 8.99671C30.1893 8.99671 31.9729 7.21311 31.9729 5.01416" fill="#AEBF6B"/>
<path d="M12.5515 32.9999C15.6175 32.9999 18.103 30.5145 18.103 27.4485C18.103 24.3825 15.6175 21.897 12.5515 21.897C9.48548 21.897 7 24.3825 7 27.4485C7 30.5145 9.48548 32.9999 12.5515 32.9999Z" fill="#CCD998"/>
<path d="M28.0182 5H18.1875V14.8307H28.0182V5Z" fill="#AEBF6B"/>
<path d="M28.0182 23.1694H18.1875V33.0001C23.6168 33.0001 28.0182 28.5988 28.0182 23.1694Z" fill="#AEBF6B"/>
<path d="M28.0182 14.8203H18.1875V23.1676H28.0182V14.8203Z" fill="#AEBF6B"/>
</svg>
