<svg width="38" height="38" viewBox="0 0 38 38" fill="none" xmlns="http://www.w3.org/2000/svg">
<rect width="38" height="38" rx="4" fill="none"/>
<g clip-path="url(#clip0_6015_33988)">
<path d="M19 33C26.732 33 33 26.732 33 19C33 11.268 26.732 5 19 5C11.268 5 5 11.268 5 19C5 26.732 11.268 33 19 33Z" fill="#B9DB70"/>
<path d="M18.9973 26.9737C23.4012 26.9737 26.9713 23.4037 26.9713 18.9998C26.9713 14.5959 23.4012 11.0259 18.9973 11.0259C14.5935 11.0259 11.0234 14.5959 11.0234 18.9998C11.0234 23.4037 14.5935 26.9737 18.9973 26.9737Z" fill="#EFFBD5"/>
<path d="M34.0499 33C34.0499 28.778 30.6273 25.354 26.4038 25.354C22.1818 25.354 18.7578 28.7765 18.7578 33" fill="#B9DB70"/>
</g>
<defs>
<clipPath id="clip0_6015_33988">
<rect width="29.0525" height="28" fill="white" transform="translate(5 5)"/>
</clipPath>
</defs>
</svg>
