<svg width="119" height="119" viewBox="0 0 119 119" fill="none" xmlns="http://www.w3.org/2000/svg">
<path d="M108.119 49.7891H104.125V49.5833H59.5001V69.4166H87.5221C83.434 80.9621 72.4488 89.25 59.5001 89.25C43.0706 89.25 29.7501 75.9294 29.7501 59.5C29.7501 43.0705 43.0706 29.75 59.5001 29.75C67.0838 29.75 73.9834 32.6109 79.2367 37.2841L93.2614 23.2595C84.4058 15.0064 72.5603 9.91663 59.5001 9.91663C32.1177 9.91663 9.91675 32.1176 9.91675 59.5C9.91675 86.8824 32.1177 109.083 59.5001 109.083C86.8825 109.083 109.083 86.8824 109.083 59.5C109.083 56.1754 108.741 52.9302 108.119 49.7891Z" fill="#FFC107"/>
<path d="M15.6335 36.4214L31.9241 48.3685C36.3321 37.4552 47.0074 29.75 59.4999 29.75C67.0837 29.75 73.9832 32.6109 79.2366 37.2841L93.2612 23.2595C84.4056 15.0064 72.5602 9.91663 59.4999 9.91663C40.455 9.91663 23.9388 20.6688 15.6335 36.4214Z" fill="#FF3D00"/>
<path d="M59.5 109.083C72.3073 109.083 83.9445 104.182 92.7431 96.2115L77.3971 83.2256C72.4189 86.9964 66.2309 89.25 59.5 89.25C46.6033 89.25 35.6529 81.0266 31.5275 69.5505L15.3584 82.0083C23.5644 98.0659 40.2294 109.083 59.5 109.083Z" fill="#4CAF50"/>
<path d="M108.119 49.7891H104.125V49.5834H59.5V69.4167H87.522C85.5585 74.9626 81.991 79.7449 77.3897 83.2281L77.3971 83.2232L92.7431 96.2091C91.6573 97.1958 109.083 84.2917 109.083 59.5C109.083 56.1755 108.741 52.9302 108.119 49.7891Z" fill="#1976D2"/>
</svg>
